<mxfile host="app.diagrams.net" modified="2023-03-13T16:54:42.696Z" agent="5.0 (iPhone; CPU iPhone OS 16_3 like Mac OS X) AppleWebKit/605.1.15 (KHTML, like Gecko) Version/16.3 Mobile/15E148 Safari/604.1" etag="d_iCA4HN-H542OZHw-RW" version="21.0.6" type="github">
  <diagram name="P치gina-1" id="fYGsFh-cDT2YUr2Oay23">
    <mxGraphModel dx="1253" dy="1063" grid="0" gridSize="10" guides="1" tooltips="1" connect="1" arrows="1" fold="1" page="0" pageScale="1" pageWidth="850" pageHeight="1100" math="0" shadow="0">
      <root>
        <mxCell id="0" />
        <mxCell id="1" parent="0" />
        <mxCell id="73X23qJm8vnrE7pq-GpV-26" style="edgeStyle=none;curved=1;rounded=0;orthogonalLoop=1;jettySize=auto;html=1;entryX=0.689;entryY=0.117;entryDx=0;entryDy=0;entryPerimeter=0;fontSize=12;startSize=8;endSize=8;" edge="1" parent="1" source="73X23qJm8vnrE7pq-GpV-1" target="73X23qJm8vnrE7pq-GpV-6">
          <mxGeometry relative="1" as="geometry" />
        </mxCell>
        <mxCell id="73X23qJm8vnrE7pq-GpV-27" style="edgeStyle=none;curved=1;rounded=0;orthogonalLoop=1;jettySize=auto;html=1;entryX=0;entryY=0;entryDx=0;entryDy=0;fontSize=12;startSize=8;endSize=8;" edge="1" parent="1" source="73X23qJm8vnrE7pq-GpV-1" target="73X23qJm8vnrE7pq-GpV-8">
          <mxGeometry relative="1" as="geometry" />
        </mxCell>
        <mxCell id="73X23qJm8vnrE7pq-GpV-28" style="edgeStyle=none;curved=1;rounded=0;orthogonalLoop=1;jettySize=auto;html=1;entryX=0;entryY=0.5;entryDx=0;entryDy=0;fontSize=12;startSize=8;endSize=8;" edge="1" parent="1" source="73X23qJm8vnrE7pq-GpV-1" target="73X23qJm8vnrE7pq-GpV-5">
          <mxGeometry relative="1" as="geometry" />
        </mxCell>
        <mxCell id="73X23qJm8vnrE7pq-GpV-29" style="edgeStyle=none;curved=1;rounded=0;orthogonalLoop=1;jettySize=auto;html=1;fontSize=12;startSize=8;endSize=8;" edge="1" parent="1" source="73X23qJm8vnrE7pq-GpV-1">
          <mxGeometry relative="1" as="geometry">
            <mxPoint x="256.7142857142858" y="136.71428571428572" as="targetPoint" />
          </mxGeometry>
        </mxCell>
        <mxCell id="73X23qJm8vnrE7pq-GpV-30" style="edgeStyle=none;curved=1;rounded=0;orthogonalLoop=1;jettySize=auto;html=1;entryX=0.603;entryY=0.929;entryDx=0;entryDy=0;entryPerimeter=0;fontSize=12;startSize=8;endSize=8;" edge="1" parent="1" source="73X23qJm8vnrE7pq-GpV-1" target="73X23qJm8vnrE7pq-GpV-2">
          <mxGeometry relative="1" as="geometry" />
        </mxCell>
        <mxCell id="73X23qJm8vnrE7pq-GpV-31" style="edgeStyle=none;curved=1;rounded=0;orthogonalLoop=1;jettySize=auto;html=1;fontSize=12;startSize=8;endSize=8;" edge="1" parent="1" source="73X23qJm8vnrE7pq-GpV-1">
          <mxGeometry relative="1" as="geometry">
            <mxPoint x="100.28571428571433" y="205.5" as="targetPoint" />
          </mxGeometry>
        </mxCell>
        <mxCell id="73X23qJm8vnrE7pq-GpV-33" style="edgeStyle=none;curved=1;rounded=0;orthogonalLoop=1;jettySize=auto;html=1;fontSize=12;startSize=8;endSize=8;entryX=0;entryY=0.5;entryDx=0;entryDy=0;" edge="1" parent="1" source="73X23qJm8vnrE7pq-GpV-1" target="73X23qJm8vnrE7pq-GpV-32">
          <mxGeometry relative="1" as="geometry">
            <mxPoint x="361.3529411764707" y="205.5" as="targetPoint" />
          </mxGeometry>
        </mxCell>
        <mxCell id="73X23qJm8vnrE7pq-GpV-36" style="edgeStyle=none;curved=1;rounded=0;orthogonalLoop=1;jettySize=auto;html=1;fontSize=12;startSize=8;endSize=8;entryX=0;entryY=0.5;entryDx=0;entryDy=0;" edge="1" parent="1" source="73X23qJm8vnrE7pq-GpV-1" target="73X23qJm8vnrE7pq-GpV-35">
          <mxGeometry relative="1" as="geometry">
            <mxPoint x="397.55555555555543" y="389.33333333333326" as="targetPoint" />
          </mxGeometry>
        </mxCell>
        <mxCell id="73X23qJm8vnrE7pq-GpV-1" value="Usuario&amp;nbsp;" style="whiteSpace=wrap;html=1;fontSize=16;" vertex="1" parent="1">
          <mxGeometry x="145" y="182" width="119" height="47" as="geometry" />
        </mxCell>
        <mxCell id="73X23qJm8vnrE7pq-GpV-2" value="Id usuario&amp;nbsp;" style="ellipse;whiteSpace=wrap;html=1;fontSize=16;" vertex="1" parent="1">
          <mxGeometry x="81" y="86" width="103" height="50" as="geometry" />
        </mxCell>
        <mxCell id="73X23qJm8vnrE7pq-GpV-4" value="Nombre" style="ellipse;whiteSpace=wrap;html=1;fontSize=16;" vertex="1" parent="1">
          <mxGeometry x="-6" y="189" width="103" height="50" as="geometry" />
        </mxCell>
        <mxCell id="73X23qJm8vnrE7pq-GpV-5" value="A. Materno&amp;nbsp;" style="ellipse;whiteSpace=wrap;html=1;fontSize=16;" vertex="1" parent="1">
          <mxGeometry x="266" y="367" width="103" height="50" as="geometry" />
        </mxCell>
        <mxCell id="73X23qJm8vnrE7pq-GpV-6" value="&amp;nbsp;A. Paterno&amp;nbsp;" style="ellipse;whiteSpace=wrap;html=1;fontSize=16;" vertex="1" parent="1">
          <mxGeometry x="29" y="287" width="103" height="48" as="geometry" />
        </mxCell>
        <mxCell id="73X23qJm8vnrE7pq-GpV-7" value="Contrase침a&amp;nbsp;" style="ellipse;whiteSpace=wrap;html=1;fontSize=16;" vertex="1" parent="1">
          <mxGeometry x="229" y="86" width="103" height="50" as="geometry" />
        </mxCell>
        <mxCell id="73X23qJm8vnrE7pq-GpV-8" value="Contrase침a&amp;nbsp;" style="ellipse;whiteSpace=wrap;html=1;fontSize=16;" vertex="1" parent="1">
          <mxGeometry x="141" y="348" width="103" height="66" as="geometry" />
        </mxCell>
        <mxCell id="73X23qJm8vnrE7pq-GpV-23" style="edgeStyle=none;curved=1;rounded=0;orthogonalLoop=1;jettySize=auto;html=1;entryX=1;entryY=0.5;entryDx=0;entryDy=0;fontSize=12;startSize=8;endSize=8;" edge="1" parent="1" source="73X23qJm8vnrE7pq-GpV-10" target="73X23qJm8vnrE7pq-GpV-11">
          <mxGeometry relative="1" as="geometry" />
        </mxCell>
        <mxCell id="73X23qJm8vnrE7pq-GpV-24" style="edgeStyle=none;curved=1;rounded=0;orthogonalLoop=1;jettySize=auto;html=1;entryX=0.5;entryY=0;entryDx=0;entryDy=0;fontSize=12;startSize=8;endSize=8;" edge="1" parent="1" source="73X23qJm8vnrE7pq-GpV-10" target="73X23qJm8vnrE7pq-GpV-12">
          <mxGeometry relative="1" as="geometry" />
        </mxCell>
        <mxCell id="73X23qJm8vnrE7pq-GpV-25" style="edgeStyle=none;curved=1;rounded=0;orthogonalLoop=1;jettySize=auto;html=1;entryX=0;entryY=0.5;entryDx=0;entryDy=0;fontSize=12;startSize=8;endSize=8;" edge="1" parent="1" source="73X23qJm8vnrE7pq-GpV-10" target="73X23qJm8vnrE7pq-GpV-13">
          <mxGeometry relative="1" as="geometry" />
        </mxCell>
        <mxCell id="73X23qJm8vnrE7pq-GpV-37" style="edgeStyle=none;curved=1;rounded=0;orthogonalLoop=1;jettySize=auto;html=1;fontSize=12;startSize=8;endSize=8;entryX=1;entryY=0.5;entryDx=0;entryDy=0;" edge="1" parent="1" source="73X23qJm8vnrE7pq-GpV-10" target="73X23qJm8vnrE7pq-GpV-35">
          <mxGeometry relative="1" as="geometry">
            <mxPoint x="490" y="373" as="targetPoint" />
          </mxGeometry>
        </mxCell>
        <mxCell id="73X23qJm8vnrE7pq-GpV-10" value="Tipo de usuario&amp;nbsp;" style="whiteSpace=wrap;html=1;fontSize=16;" vertex="1" parent="1">
          <mxGeometry x="647" y="171" width="114" height="62" as="geometry" />
        </mxCell>
        <mxCell id="73X23qJm8vnrE7pq-GpV-11" value="Nombre&amp;nbsp;" style="ellipse;whiteSpace=wrap;html=1;fontSize=16;" vertex="1" parent="1">
          <mxGeometry x="479" y="82" width="103" height="50" as="geometry" />
        </mxCell>
        <mxCell id="73X23qJm8vnrE7pq-GpV-12" value="Id Tusuario" style="ellipse;whiteSpace=wrap;html=1;fontSize=16;" vertex="1" parent="1">
          <mxGeometry x="747" y="294" width="103" height="50" as="geometry" />
        </mxCell>
        <mxCell id="73X23qJm8vnrE7pq-GpV-13" value="Descripci칩n&amp;nbsp;" style="ellipse;whiteSpace=wrap;html=1;fontSize=16;" vertex="1" parent="1">
          <mxGeometry x="824" y="170" width="103" height="50" as="geometry" />
        </mxCell>
        <mxCell id="73X23qJm8vnrE7pq-GpV-19" style="edgeStyle=none;curved=1;rounded=0;orthogonalLoop=1;jettySize=auto;html=1;entryX=0;entryY=0.5;entryDx=0;entryDy=0;fontSize=12;startSize=8;endSize=8;" edge="1" parent="1" source="73X23qJm8vnrE7pq-GpV-14" target="73X23qJm8vnrE7pq-GpV-15">
          <mxGeometry relative="1" as="geometry" />
        </mxCell>
        <mxCell id="73X23qJm8vnrE7pq-GpV-20" style="edgeStyle=none;curved=1;rounded=0;orthogonalLoop=1;jettySize=auto;html=1;fontSize=12;startSize=8;endSize=8;" edge="1" parent="1" source="73X23qJm8vnrE7pq-GpV-14">
          <mxGeometry relative="1" as="geometry">
            <mxPoint x="419.5" y="676.4705882352941" as="targetPoint" />
          </mxGeometry>
        </mxCell>
        <mxCell id="73X23qJm8vnrE7pq-GpV-22" style="edgeStyle=none;curved=1;rounded=0;orthogonalLoop=1;jettySize=auto;html=1;fontSize=12;startSize=8;endSize=8;entryX=1;entryY=0.5;entryDx=0;entryDy=0;" edge="1" parent="1" source="73X23qJm8vnrE7pq-GpV-14" target="73X23qJm8vnrE7pq-GpV-17">
          <mxGeometry relative="1" as="geometry">
            <mxPoint x="331" y="551" as="targetPoint" />
          </mxGeometry>
        </mxCell>
        <mxCell id="73X23qJm8vnrE7pq-GpV-14" value="contApp" style="whiteSpace=wrap;html=1;fontSize=16;" vertex="1" parent="1">
          <mxGeometry x="374" y="545" width="91" height="54" as="geometry" />
        </mxCell>
        <mxCell id="73X23qJm8vnrE7pq-GpV-15" value="Login&amp;nbsp;" style="ellipse;whiteSpace=wrap;html=1;fontSize=16;" vertex="1" parent="1">
          <mxGeometry x="569" y="541" width="103" height="50" as="geometry" />
        </mxCell>
        <mxCell id="73X23qJm8vnrE7pq-GpV-16" value="Id usuario&amp;nbsp;" style="ellipse;whiteSpace=wrap;html=1;fontSize=16;" vertex="1" parent="1">
          <mxGeometry x="365" y="686" width="103" height="50" as="geometry" />
        </mxCell>
        <mxCell id="73X23qJm8vnrE7pq-GpV-17" value="Id tusuario&amp;nbsp;" style="ellipse;whiteSpace=wrap;html=1;fontSize=16;" vertex="1" parent="1">
          <mxGeometry x="179" y="541" width="114" height="50" as="geometry" />
        </mxCell>
        <mxCell id="73X23qJm8vnrE7pq-GpV-34" style="edgeStyle=none;curved=1;rounded=0;orthogonalLoop=1;jettySize=auto;html=1;fontSize=12;startSize=8;endSize=8;" edge="1" parent="1" source="73X23qJm8vnrE7pq-GpV-32">
          <mxGeometry relative="1" as="geometry">
            <mxPoint x="642.5294117647059" y="197.75" as="targetPoint" />
          </mxGeometry>
        </mxCell>
        <mxCell id="73X23qJm8vnrE7pq-GpV-32" value="Tiene" style="rhombus;whiteSpace=wrap;html=1;fontSize=16;" vertex="1" parent="1">
          <mxGeometry x="374" y="171.5" width="80" height="52.5" as="geometry" />
        </mxCell>
        <mxCell id="73X23qJm8vnrE7pq-GpV-38" style="edgeStyle=none;curved=1;rounded=0;orthogonalLoop=1;jettySize=auto;html=1;entryX=0.5;entryY=0;entryDx=0;entryDy=0;fontSize=12;startSize=8;endSize=8;" edge="1" parent="1" source="73X23qJm8vnrE7pq-GpV-35" target="73X23qJm8vnrE7pq-GpV-14">
          <mxGeometry relative="1" as="geometry" />
        </mxCell>
        <mxCell id="73X23qJm8vnrE7pq-GpV-35" value="Ocupan" style="rhombus;whiteSpace=wrap;html=1;fontSize=16;" vertex="1" parent="1">
          <mxGeometry x="403" y="353" width="80" height="53" as="geometry" />
        </mxCell>
      </root>
    </mxGraphModel>
  </diagram>
</mxfile>
